<?xml version="1.0" standalone="no"?>
<!DOCTYPE svg PUBLIC "-//W3C//DTD SVG 20010904//EN"
 "http://www.w3.org/TR/2001/REC-SVG-20010904/DTD/svg10.dtd">
<svg version="1.0" xmlns="http://www.w3.org/2000/svg"
 width="674.000000pt" height="657.000000pt" viewBox="0 0 674.000000 657.000000"
 preserveAspectRatio="xMidYMid meet">

<g transform="translate(0.000000,657.000000) scale(0.100000,-0.100000)"
fill="#66FCF1" stroke="none">
<path d="M3345 5823 c-530 -44 -986 -313 -1272 -750 -261 -399 -333 -928 -189
-1387 l22 -71 73 -3 c41 -2 79 -1 86 2 8 3 2 34 -21 103 -51 157 -68 275 -68
463 0 111 6 195 17 257 130 707 742 1223 1450 1223 80 0 181 -5 223 -11 555
-77 1034 -479 1202 -1009 58 -181 67 -246 67 -465 0 -215 -14 -310 -70 -476
-14 -40 -25 -76 -25 -81 0 -5 37 -8 83 -6 l82 3 24 70 c59 177 87 418 71 616
-42 515 -307 965 -735 1254 -89 59 -286 155 -390 189 -200 65 -440 95 -630 79z"/>
<path d="M3478 5040 c-66 -47 -83 -74 -37 -58 16 5 47 8 69 6 l40 -4 0 48 c0
27 -4 48 -8 48 -5 0 -34 -18 -64 -40z"/>
<path d="M2898 4950 c-24 -16 -53 -39 -63 -50 -21 -23 -13 -25 45 -11 20 4 46
4 58 0 21 -8 22 -6 22 41 0 28 -4 50 -8 50 -5 0 -29 -13 -54 -30z"/>
<path d="M3537 4913 c-4 -3 -7 -20 -7 -37 0 -37 -127 -303 -149 -311 -35 -14
-171 -17 -238 -6 l-71 13 -48 91 c-26 51 -50 105 -53 120 -5 23 -25 -20 -109
-234 -56 -144 -101 -264 -99 -265 2 -2 38 84 82 191 43 108 79 194 81 192 6
-6 -34 -160 -61 -237 -34 -96 -186 -411 -195 -405 -4 2 -27 -45 -51 -105 -30
-74 -50 -110 -62 -114 -37 -10 -14 -40 47 -61 56 -19 61 -23 75 -65 9 -25 20
-51 24 -58 6 -9 144 -12 602 -12 l595 0 45 89 c35 70 54 96 87 119 49 34 171
95 271 137 48 20 67 33 67 47 0 23 -22 23 -89 -2 -44 -17 -56 -18 -69 -8 -13
11 -14 10 -10 -2 6 -17 -30 -30 -167 -60 -100 -22 -165 -26 -165 -9 0 33 26
50 129 83 60 20 123 37 139 38 30 2 30 3 14 24 -247 319 -396 525 -469 648
-31 53 -65 96 -83 107 -20 13 -30 27 -30 43 0 44 -16 67 -33 49z m48 -103 c3
-5 1 -10 -4 -10 -6 0 -11 5 -11 10 0 6 2 10 4 10 3 0 8 -4 11 -10z m-55 -20
c0 -5 -5 -10 -11 -10 -5 0 -7 5 -4 10 3 6 8 10 11 10 2 0 4 -4 4 -10z m-44
-123 c-6 -34 -50 -96 -60 -86 -3 3 8 37 25 75 32 68 47 73 35 11z m-455 -39
c11 -21 16 -38 11 -38 -21 0 -42 29 -51 70 -9 41 -8 43 5 25 9 -11 24 -37 35
-57z m780 -163 c26 -55 56 -131 65 -170 17 -72 22 -217 9 -274 -6 -30 -9 -32
-43 -29 l-37 3 4 81 c3 85 -13 162 -36 171 -7 3 -49 -9 -94 -26 -96 -37 -101
-37 -97 -10 2 16 22 28 83 51 44 17 91 41 104 56 21 23 23 33 18 86 -6 70 -37
159 -69 198 l-23 28 -41 -19 c-73 -33 -84 -35 -84 -12 0 15 13 28 45 43 25 12
48 31 51 41 5 17 14 8 51 -49 25 -38 67 -114 94 -169z m-281 115 c0 -13 -14
-25 -45 -39 l-45 -20 0 -65 c0 -127 -35 -296 -61 -296 -5 0 -36 34 -69 76
l-61 76 18 27 c9 14 43 69 75 121 54 88 62 97 111 117 65 28 77 28 77 3z
m-480 -10 c10 -5 33 -33 50 -62 18 -29 55 -84 82 -121 28 -40 47 -75 44 -83
-5 -13 -8 -13 -27 0 -59 41 -179 217 -179 263 0 16 5 16 30 3z m238 -28 c50 2
92 2 92 1 0 -2 -30 -51 -67 -108 -55 -86 -69 -102 -81 -93 -19 16 -142 194
-142 206 0 6 19 6 53 0 28 -6 94 -8 145 -6z m-319 -541 l1 -143 -27 7 c-16 4
-29 8 -30 9 -1 1 6 121 17 267 11 145 21 280 22 299 3 51 15 -271 17 -439z
m70 122 c1 -7 -7 -13 -17 -13 -17 0 -20 12 -25 107 -13 201 -7 220 18 63 13
-80 24 -151 24 -157z m270 95 l52 -67 -42 -11 c-22 -6 -39 -13 -37 -15 2 -2
23 1 46 7 37 9 45 8 63 -8 18 -16 20 -27 15 -68 -6 -55 -45 -143 -75 -170 -19
-17 -20 -17 -30 3 -11 20 -37 136 -45 196 -2 17 -6 37 -9 45 -16 44 -26 144
-15 157 6 8 14 10 18 6 3 -4 30 -38 59 -75z m221 -39 c0 -23 -55 -51 -104 -53
-49 -2 -39 19 21 46 72 32 83 33 83 7z m-480 -97 c0 -10 -21 -32 -31 -32 -4 0
-9 9 -12 20 -4 16 0 20 19 20 13 0 24 -4 24 -8z m15 -116 c22 -115 21 -126
-14 -126 -27 0 -29 3 -35 53 -10 90 -7 129 11 143 10 7 19 11 21 10 1 -2 9
-38 17 -80z m805 -7 c0 -4 -4 -19 -10 -33 -9 -26 -10 -26 -124 -26 -63 0 -117
4 -120 9 -3 5 32 21 79 35 46 15 86 30 89 35 7 11 86 -8 86 -20z m-1060 -67
c47 -13 102 -29 123 -34 33 -9 37 -14 37 -44 0 -29 -3 -34 -24 -34 -14 0 -38
11 -54 25 -33 28 -72 31 -217 15 -44 -4 -81 -7 -83 -6 -1 2 9 28 24 59 l25 57
42 -6 c23 -4 80 -18 127 -32z m487 -27 l21 -64 -42 -6 c-22 -3 -88 -6 -146 -7
-99 -3 -105 -2 -108 17 -2 18 3 21 43 23 58 2 135 35 171 73 15 16 30 29 34
29 3 0 15 -29 27 -65z m213 0 c0 -32 -36 -52 -105 -60 -52 -5 -70 -4 -76 7 -5
7 -5 14 -1 15 31 11 169 52 175 52 4 1 7 -6 7 -14z"/>
<path d="M2746 4255 c-9 -26 -7 -32 5 -12 6 10 9 21 6 23 -2 3 -7 -2 -11 -11z"/>
<path d="M1336 3160 c-60 -16 -115 -51 -139 -89 -17 -28 -22 -55 -25 -129 -5
-108 12 -166 59 -206 36 -31 116 -56 176 -56 43 0 44 -1 84 -65 l41 -65 59 0
c72 0 75 11 23 88 -20 30 -34 55 -32 56 2 1 20 13 41 25 51 31 79 89 85 177 8
130 -32 211 -122 249 -47 20 -195 28 -250 15z m189 -114 c45 -19 55 -42 55
-126 0 -66 -2 -74 -29 -101 -27 -27 -35 -29 -105 -29 -41 0 -86 4 -101 10 -37
14 -58 70 -53 142 5 62 31 103 72 111 49 10 129 6 161 -7z"/>
<path d="M4345 3156 c-33 -9 -60 -26 -82 -50 -29 -31 -33 -42 -33 -92 0 -102
51 -139 208 -150 93 -7 122 -16 122 -39 0 -30 -40 -38 -164 -32 -67 4 -133 10
-148 13 -28 6 -28 6 -28 -49 0 -66 -3 -65 166 -74 148 -7 210 5 259 52 32 29
35 38 35 88 0 45 -5 61 -26 86 -32 38 -104 61 -194 61 -98 0 -141 39 -85 76
22 14 42 16 123 10 53 -3 112 -9 130 -12 l32 -6 0 51 c0 46 -3 52 -26 62 -47
17 -233 21 -289 5z"/>
<path d="M5377 3160 c-117 -30 -167 -100 -167 -232 0 -97 15 -146 57 -185 43
-42 116 -63 213 -63 200 0 282 84 267 275 -8 106 -40 156 -122 191 -47 20
-192 28 -248 14z m188 -114 c44 -19 58 -48 59 -122 2 -107 -28 -134 -145 -134
-84 0 -123 17 -138 61 -15 42 -14 118 2 149 27 54 144 78 222 46z"/>
<path d="M670 3121 c-52 -102 -190 -406 -190 -418 0 -9 16 -13 54 -13 54 0 55
1 78 43 l23 42 115 0 115 0 20 -42 19 -43 58 0 c40 0 58 4 57 13 0 6 -46 111
-103 232 l-103 220 -61 3 -61 3 -21 -40z m113 -153 c15 -35 27 -69 27 -75 0
-9 -20 -13 -65 -13 -36 0 -65 2 -65 5 0 12 63 145 69 145 4 0 19 -28 34 -62z"/>
<path d="M1910 2992 c0 -154 2 -171 23 -212 33 -66 87 -93 198 -98 113 -6 185
14 228 63 17 20 34 48 38 63 5 15 8 99 8 187 l0 160 -60 0 -60 0 -5 -163 c-5
-157 -6 -165 -29 -183 -27 -22 -133 -27 -175 -8 -37 17 -46 58 -46 215 l0 144
-60 0 -60 0 0 -168z"/>
<path d="M2741 3098 c-16 -35 -63 -137 -105 -227 -41 -91 -73 -168 -70 -173 3
-4 29 -8 58 -8 52 0 53 0 72 43 l19 42 115 3 116 3 22 -46 22 -45 55 0 c46 0
55 3 54 18 0 9 -46 114 -102 232 l-103 215 -62 3 -62 3 -29 -63z m128 -138
c17 -39 31 -72 31 -75 0 -3 -29 -5 -65 -5 -45 0 -65 4 -65 13 0 18 52 137 60
137 4 0 21 -32 39 -70z"/>
<path d="M3185 3147 c-3 -7 41 -112 98 -233 l103 -219 65 -3 64 -3 103 223
c56 123 102 229 102 236 0 9 -15 12 -57 10 l-57 -3 -75 -173 c-41 -95 -78
-169 -83 -164 -4 4 -41 82 -81 172 l-73 165 -52 3 c-37 2 -54 -1 -57 -11z"/>
<path d="M3907 3154 c-4 -4 -7 -110 -7 -236 l0 -229 63 3 62 3 0 230 0 230
-55 3 c-31 2 -59 0 -63 -4z"/>
<path d="M4887 3154 c-4 -4 -7 -110 -7 -236 l0 -228 65 0 65 0 -2 233 -3 232
-55 3 c-31 2 -59 0 -63 -4z"/>
<path d="M5950 2925 l0 -235 60 0 60 0 0 140 c0 83 4 140 10 140 5 0 60 -63
122 -140 l113 -140 63 0 62 0 0 235 0 235 -60 0 -60 0 0 -146 c0 -91 -4 -144
-10 -142 -5 2 -60 66 -122 143 l-113 140 -63 3 -62 3 0 -236z"/>
</g>
</svg>
